<svg width="315" height="73" viewBox="0 0 315 73" fill="none" xmlns="http://www.w3.org/2000/svg">
<g clip-path="url(#clip0_10_26)">
<path d="M27.7655 0.0364151C24.1593 0.444931 20.201 1.89586 17.2428 3.868C11.0446 7.98132 6.98765 14.7711 6.43827 21.9131L6.32558 23.2795L5.55081 23.5471C4.19848 24.012 3.5505 24.9699 2.86025 27.6323C2.49399 28.9846 2.35313 32.0837 2.57851 33.5487C3.0152 36.4083 4.71969 40.1553 5.74802 40.5216C6.24106 40.6906 6.8327 40.3807 7.02991 39.8314C7.14261 39.5074 7.10035 39.3383 6.77635 38.7889C5.32542 36.366 4.71969 34.4361 4.607 31.971C4.50839 30.0833 4.69152 28.6606 5.22681 27.0688C5.64942 25.7728 5.86072 25.5193 6.5087 25.5193C6.97357 25.5193 7.21304 25.7165 9.41057 27.8999C10.7347 29.21 12.0448 30.3933 12.3124 30.5341C12.9886 30.9004 14.8621 30.9004 15.5101 30.5482C16.2426 30.1538 16.947 29.4635 17.285 28.8437C17.6935 28.069 17.7217 26.2518 17.3273 25.5193C17.1864 25.2516 16.0031 23.9415 14.6931 22.6174C12.5096 20.4199 12.3124 20.1804 12.3124 19.7155C12.3124 19.1098 12.5519 18.8844 13.5943 18.5041C15.7214 17.7152 19.4966 17.5321 21.2716 18.1096C21.3702 18.1519 21.3561 18.5182 21.2434 19.3352C20.9617 21.1806 20.9898 21.8567 21.3984 22.6174C21.7223 23.2372 21.7364 23.3358 21.5956 24.2937C21.2434 26.7871 22.1168 29.5621 23.8494 31.4638C24.3847 32.0555 24.4974 32.2668 24.4129 32.4922C24.3566 32.6471 24.3002 33.1402 24.3002 33.5909C24.2861 34.3234 24.258 34.3939 24.0467 34.2812C23.5959 34.0417 22.7084 33.9854 22.0323 34.1262C19.3276 34.7038 18.2148 37.9156 20.0038 40.0004C20.7504 40.8879 21.4688 41.2118 22.6662 41.2118C23.2155 41.2259 23.7931 41.1696 23.9762 41.1132C24.2861 41.0005 24.2861 41.0146 24.2861 42.1838V43.3671L23.1733 43.8179C21.5674 44.4377 20.4968 44.6772 18.7219 44.7758C15.9609 44.9167 13.4253 44.2546 10.946 42.7614C9.94586 42.1557 9.57961 42.0007 9.32605 42.0711C8.38224 42.367 8.2132 43.2967 8.97388 43.9869C9.62187 44.5927 12.6082 46.0154 13.9606 46.3817L15.1016 46.6916L15.2002 47.4804C15.3692 48.9032 15.5524 49.3681 16.1722 49.9597L16.7779 50.5232L17.0174 52.4249L17.2569 54.3407L16.637 54.9886C15.2425 56.4255 15.2002 58.5667 16.5244 60.0458L17.0596 60.6515L16.6934 61.2854C16.1581 62.2433 16.1863 63.6097 16.7497 64.6521C16.9751 65.0747 17.2991 65.5255 17.4682 65.6523L17.7922 65.9058L17.4118 66.6524C16.5244 68.4555 17.2709 70.6249 19.1304 71.625C19.7079 71.935 19.7361 71.935 30.1885 71.9772C41.8663 72.0195 41.4437 72.0476 42.5988 71.0616C43.8526 69.991 44.2188 68.1879 43.5145 66.6665L43.1623 65.9199L43.6694 65.3565C44.3597 64.5817 44.5851 63.976 44.5851 62.8772C44.5851 62.1729 44.5005 61.8066 44.2329 61.2572L43.8666 60.567L44.2047 60.2993C44.4019 60.1444 44.7259 59.6654 44.9513 59.2147C45.6697 57.7356 45.3739 55.9606 44.1906 54.8619L43.6835 54.3688L43.923 52.3826C44.0779 51.1852 44.2329 50.3541 44.3315 50.3259C44.4301 50.2978 44.6978 50.0583 44.9513 49.8047C45.3739 49.354 45.6979 48.3961 45.6979 47.579C45.6979 47.3959 45.881 46.4944 46.1205 45.5787C46.6558 43.4375 47.7264 41.2541 49.1632 39.3101C51.1917 36.5914 52.1215 34.9292 53.0653 32.4217C53.9105 30.1397 54.3894 27.8858 54.5585 25.3784L54.643 24.0402L55.3473 23.9556C56.7278 23.7866 58.0097 22.8287 58.6577 21.5045C59.1366 20.5044 59.1366 18.8422 58.6577 17.842C58.221 16.9405 57.404 16.1375 56.5024 15.7149C55.8826 15.4332 55.5445 15.3768 54.4035 15.3768H53.0371L52.4736 14.1654L51.8961 12.9539L52.3891 12.4891C53.8119 11.1508 53.9105 8.85468 52.5863 7.41784C51.6425 6.38951 51.0931 6.22047 48.7829 6.22047H46.7967L45.7965 5.38936C40.8098 1.29013 34.0905 -0.710182 27.7655 0.0364151ZM33.3439 2.20576C36.5979 2.64245 39.542 3.71304 42.3453 5.50205C42.7961 5.78378 43.1623 6.05144 43.1623 6.10778C43.1623 6.16412 40.4858 6.22047 37.2177 6.24865C31.4281 6.30499 31.2309 6.30499 30.273 6.62899C26.3569 7.92496 23.7931 10.531 22.3281 14.7429C22.0745 15.4332 21.8632 16.0107 21.8491 16.0389C21.821 16.053 21.2997 15.9826 20.694 15.8699C17.2428 15.25 12.411 16.1093 11.0164 17.5884C10.2276 18.4196 9.95995 19.8987 10.4107 20.9833C10.5516 21.2932 11.5377 22.4202 12.9322 23.8289C14.2 25.1107 15.3129 26.294 15.3974 26.4631C16.0736 27.8013 14.524 29.2663 13.1858 28.562C12.9745 28.4493 11.8335 27.3787 10.6361 26.1813L8.46676 23.9979L8.49493 22.885C8.6358 18.0251 10.9178 12.7004 14.51 8.91104C19.3135 3.81165 26.4132 1.27603 33.3439 2.20576ZM50.8114 8.61522C51.234 8.9533 51.5157 9.71398 51.403 10.207C51.3467 10.4042 51.1213 10.7423 50.8959 10.9536L50.4733 11.3621L47.4869 11.4326C44.6696 11.503 44.4724 11.5171 43.9653 11.827C42.3171 12.8553 41.979 14.9683 43.2468 16.3629C44.2047 17.4194 44.1343 17.4053 50.2338 17.4898L55.6854 17.5603L56.1925 18.0533C57.1363 18.9689 57.1927 20.1804 56.3193 21.1524C55.939 21.5609 55.6572 21.7299 55.1219 21.8426C54.6712 21.9412 51.6143 21.9976 46.5431 21.9976H38.6687L37.908 20.8284C37.4854 20.1663 36.2317 18.7013 35.0061 17.4194C33.8369 16.1798 32.5832 14.7429 32.2451 14.2217C31.907 13.7146 31.414 13.1511 31.1745 12.968C30.6251 12.5877 29.47 12.4468 28.7375 12.7004C27.9487 12.9539 25.4694 15.7994 24.0748 18.0674C23.7227 18.6309 23.4409 18.9971 23.4409 18.8844C23.4409 18.3914 24.1875 15.7149 24.6383 14.6021C25.6948 11.9678 27.2302 10.2915 29.5686 9.17868C31.2872 8.36166 31.2731 8.36166 41.2747 8.34757C50.262 8.33348 50.4592 8.33348 50.8114 8.61522ZM50.2479 14.3203C50.4592 14.757 50.6283 15.1655 50.6283 15.25C50.6283 15.3487 49.7126 15.3768 47.8673 15.3487C45.1626 15.3064 45.1063 15.3064 44.8386 14.9683C44.5005 14.5457 44.5005 14.1795 44.8527 13.8273C45.1063 13.5737 45.3176 13.5456 47.501 13.5456H49.8676L50.2479 14.3203ZM30.5829 15.5459C30.9069 16.0389 32.1747 17.4898 33.4002 18.7858C34.6258 20.0677 35.7386 21.3214 35.8795 21.5609L36.133 21.9976H34.4849C32.5691 21.9976 32.3155 22.1103 32.3155 22.9837C32.3155 23.9134 32.5832 24.0261 35.0484 24.1106L37.1755 24.181L37.2177 25.2798C37.3022 27.4914 36.3725 29.4354 34.5412 30.8863C34.006 31.3089 33.7101 31.4357 33.3016 31.4357H32.7522L33.0199 30.6609C33.1608 30.2383 33.358 29.379 33.4566 28.7733C33.6115 27.7731 33.5974 27.6182 33.3861 27.2942C33.1044 26.8575 32.555 26.6885 32.0902 26.9138C31.6676 27.097 31.5549 27.3787 31.2872 28.8719C31.0618 30.0693 30.6533 31.0976 30.4138 31.0694C30.1462 31.0272 29.6391 29.2804 29.4419 27.7309C29.2869 26.4208 29.2024 26.1391 28.9347 25.9137C28.4981 25.5615 28.005 25.5897 27.5683 26.0264C27.2302 26.3785 27.2162 26.4208 27.3148 27.59C27.3993 28.6183 27.681 30.0129 28.0191 31.1117C28.1177 31.4075 28.0755 31.4357 27.5965 31.4357C26.6386 31.4357 25.1313 30.0411 24.2861 28.3507C23.8354 27.4491 23.5395 25.8855 23.6522 24.9135L23.7508 24.1106H25.9624C28.2727 24.1106 28.977 23.9838 29.2165 23.5471C29.4419 23.1245 29.3855 22.5892 29.0756 22.2793C28.822 22.0258 28.6107 21.9976 26.6104 21.9976C25.4131 21.9976 24.427 21.9694 24.427 21.9271C24.427 21.7158 25.5398 19.6874 26.1597 18.7576C27.5402 16.6587 29.2728 14.6725 29.6954 14.6725C29.9208 14.6725 30.1603 14.9261 30.5829 15.5459ZM52.4595 24.9135C52.4595 25.3643 52.3609 26.3645 52.2482 27.1392C51.6425 31.1539 50.4029 34.0699 47.7405 37.6761C46.2614 39.6764 45.5148 40.9724 44.8668 42.5783C44.3174 43.9447 43.768 46.0154 43.6413 47.1283C43.4863 48.5792 43.768 48.4806 39.9928 48.4806H36.6824V47.2973C36.6824 46.2549 36.6402 46.0577 36.3584 45.7196C36.1049 45.4379 35.9077 45.3393 35.5414 45.3533C34.7666 45.3674 34.5694 45.7478 34.5694 47.2269V48.4806H30.4843H26.3991V44.1137V39.7468H30.4843H34.5694V40.7892C34.5694 41.7612 34.5976 41.8598 34.9357 42.1275C35.4005 42.4937 35.8513 42.5078 36.2739 42.1557L36.612 41.888L36.6543 37.5352C36.6824 34.6334 36.6543 33.0134 36.5416 32.6612C36.3866 32.14 36.4007 32.1259 37.1614 31.2807C38.5841 29.703 39.3589 27.6323 39.3589 25.3925V24.1106H45.9092H52.4595V24.9135ZM34.5694 35.5913V37.6338H30.4843H26.3991V35.5913V33.5487H30.4843H34.5694V35.5913ZM23.6663 36.4646C24.0889 36.7323 24.3425 37.3943 24.2298 37.9578C23.9621 39.3806 21.9336 39.5778 21.3843 38.2396C21.1166 37.6197 21.2293 37.0704 21.7223 36.6055C22.2999 36.0561 22.9761 36.0139 23.6663 36.4646ZM24.2861 47.0719V48.4806H20.9053C18.3134 48.4806 17.4963 48.4383 17.4682 48.2975C17.4259 48.2129 17.3696 47.8608 17.3273 47.5227L17.2428 46.9311H18.257C19.9756 46.9311 22.7225 46.3535 24.258 45.6773C24.272 45.6632 24.2861 46.2971 24.2861 47.0719ZM41.979 51.0444C41.8945 51.5092 41.6128 53.6645 41.6128 53.7772C41.6128 53.8054 36.612 53.8335 30.4843 53.8335H19.3558L19.2994 53.5095C19.229 53.1856 18.9332 50.9176 18.9332 50.7063C18.9332 50.6499 24.1312 50.5936 30.4843 50.5936H42.0495L41.979 51.0444ZM42.4721 56.186C43.3877 56.7354 43.5145 57.9469 42.7256 58.7075L42.303 59.1161L30.6111 59.1583C17.764 59.2006 18.3415 59.2287 17.8767 58.3413C17.609 57.8201 17.609 57.313 17.8767 56.7917C18.3274 55.9184 17.7499 55.9606 30.4561 55.9465C41.1479 55.9465 42.0917 55.9606 42.4721 56.186ZM41.9509 61.708C42.6552 62.3701 42.6693 63.4125 41.9649 64.1168L41.6128 64.469L30.8646 64.5113C24.9623 64.5394 19.9333 64.5113 19.6939 64.469C18.7078 64.3 18.1443 63.173 18.5669 62.2574C19.0459 61.2431 18.3134 61.2995 30.5829 61.3418L41.5846 61.3699L41.9509 61.708ZM40.9084 66.8637C41.1338 66.9764 41.4156 67.2159 41.5283 67.3849C41.81 67.7935 41.81 68.7514 41.5283 69.1599C41.007 69.9065 41.3029 69.8924 30.4561 69.8924C19.7079 69.8924 20.0038 69.9065 19.4544 69.174C18.9191 68.4415 19.229 67.2723 20.0742 66.8356C20.3278 66.6947 22.7648 66.6524 30.4561 66.6524C39.0913 66.6524 40.5563 66.6806 40.9084 66.8637Z" fill="white"/>
<path d="M9.86137 4.17631C9.63598 4.35944 9.49512 4.59891 9.49512 4.83838C9.49512 5.50046 10.0163 7.12043 10.284 7.33173C10.932 7.82477 11.8899 7.34582 11.8899 6.54287C11.8899 5.78219 11.4673 4.38761 11.1573 4.11996C10.777 3.79597 10.3262 3.81005 9.86137 4.17631Z" fill="#FAFF00"/>
<path d="M51.896 4.13423C51.6142 4.35962 51.0508 5.99368 51.0508 6.5994C51.0508 6.96566 51.6847 7.54321 52.0932 7.54321C52.6848 7.54321 53.1074 7.00792 53.361 5.9655C53.6568 4.72587 53.6427 4.64135 53.2342 4.23284C52.8398 3.82432 52.3327 3.78206 51.896 4.13423Z" fill="#FAFF00"/>
<path d="M6.32555 6.66987C5.83252 6.76848 5.55078 7.13473 5.55078 7.65594C5.55078 8.07854 5.67756 8.28984 6.36781 8.98009C7.02989 9.62808 7.28345 9.79712 7.63561 9.79712C8.22726 9.79712 8.64986 9.36043 8.64986 8.76879C8.64986 8.38845 8.4949 8.16306 7.84691 7.52916C6.98763 6.68396 6.77632 6.57126 6.32555 6.66987Z" fill="#FAFF00"/>
<path d="M56.0377 6.76835C55.5165 6.99374 54.4741 8.12067 54.3473 8.59962C54.2064 9.16309 54.6713 9.71247 55.3333 9.76882C55.7982 9.81108 55.925 9.74064 56.6857 8.96588C57.545 8.10659 57.6999 7.71216 57.39 7.12052C57.1787 6.72609 56.5307 6.55705 56.0377 6.76835Z" fill="#FAFF00"/>
<path d="M3.14206 10.8957C2.73354 11.2338 2.71946 11.9522 3.11389 12.3466C3.40971 12.6565 4.66342 13.0369 5.38185 13.0369C5.97349 13.0369 6.39609 12.6143 6.39609 12.0085C6.39609 11.3887 6.10027 11.1352 5.04376 10.8675C3.91683 10.5717 3.53649 10.5858 3.14206 10.8957Z" fill="#FAFF00"/>
<path d="M57.9533 10.8535C56.6714 11.1634 56.2206 12.0086 56.9249 12.7834C57.2067 13.0933 57.7279 13.1074 58.8548 12.8256C59.8127 12.5721 60.2072 12.2199 60.2072 11.6142C60.2072 10.7126 59.5028 10.4731 57.9533 10.8535Z" fill="#FAFF00"/>
<path d="M12.1714 33.1496C11.3685 33.4032 10.4247 34.2062 10.0162 34.9668C9.60766 35.7275 9.57948 37.4179 9.97391 38.1504C11.3685 40.7987 14.9324 40.9537 16.3834 38.4181C16.6088 38.0236 16.8341 37.4179 16.8905 37.0798C17.0032 36.291 16.6933 35.164 16.1439 34.4034C15.3269 33.2764 13.5238 32.713 12.1714 33.1496ZM13.7632 35.1781C15.4536 35.8261 14.8197 38.3899 13.0448 38.0941C11.6643 37.8687 11.3121 36.0515 12.5095 35.319C13.0026 35.0232 13.2702 34.995 13.7632 35.1781Z" fill="#FAFF00"/>
</g>
<path d="M69.8426 27.8751H75.6466L83.4193 46.8467H83.7262L91.4989 27.8751H97.3029V54.0569H92.7517V36.0697H92.5088L85.273 53.9802H81.8725L74.6367 36.0313H74.3938V54.0569H69.8426V27.8751ZM105.14 61.4205C104.509 61.4205 103.925 61.3694 103.388 61.2671C102.86 61.1734 102.438 61.0626 102.122 60.9347L103.196 57.3296C103.87 57.5256 104.47 57.6194 104.999 57.6109C105.527 57.6023 105.992 57.4361 106.392 57.1123C106.801 56.7969 107.147 56.2685 107.428 55.5271L107.824 54.466L100.703 34.4205H105.613L110.138 49.2501H110.343L114.881 34.4205H119.803L111.941 56.4347C111.574 57.4745 111.088 58.3651 110.483 59.1066C109.878 59.8566 109.137 60.4276 108.259 60.8197C107.39 61.2202 106.35 61.4205 105.14 61.4205ZM124.111 54.0569H119.049L128.266 27.8751H134.121L143.351 54.0569H138.289L131.296 33.2444H131.091L124.111 54.0569ZM124.277 43.7913H138.084V47.6009H124.277V43.7913ZM154.563 54.4404C152.603 54.4404 150.919 54.01 149.513 53.1492C148.115 52.2884 147.037 51.0995 146.279 49.5825C145.529 48.0569 145.154 46.3012 145.154 44.3154C145.154 42.3211 145.537 40.5611 146.304 39.0356C147.071 37.5015 148.154 36.3083 149.551 35.456C150.958 34.5952 152.62 34.1648 154.537 34.1648C156.131 34.1648 157.542 34.4589 158.769 35.0469C160.005 35.6265 160.989 36.4489 161.722 37.5143C162.455 38.5711 162.872 39.8069 162.975 41.2217H158.551C158.372 40.2756 157.946 39.4873 157.273 38.8566C156.608 38.2174 155.718 37.8978 154.601 37.8978C153.655 37.8978 152.824 38.1535 152.108 38.6648C151.392 39.1677 150.834 39.8921 150.434 40.8381C150.042 41.7842 149.845 42.9177 149.845 44.2387C149.845 45.5768 150.042 46.7273 150.434 47.6904C150.826 48.645 151.375 49.3822 152.083 49.9021C152.799 50.4134 153.638 50.6691 154.601 50.6691C155.283 50.6691 155.892 50.5413 156.429 50.2856C156.975 50.0214 157.431 49.6421 157.797 49.1478C158.164 48.6535 158.415 48.0526 158.551 47.3452H162.975C162.864 48.7344 162.455 49.966 161.747 51.0398C161.04 52.1052 160.077 52.9404 158.858 53.5455C157.64 54.1421 156.208 54.4404 154.563 54.4404ZM172.425 54.4532C171.181 54.4532 170.06 54.2316 169.063 53.7884C168.075 53.3367 167.29 52.6719 166.711 51.7941C166.14 50.9163 165.854 49.8339 165.854 48.5469C165.854 47.439 166.059 46.5228 166.468 45.7984C166.877 45.0739 167.435 44.4944 168.143 44.0597C168.85 43.6251 169.647 43.2969 170.533 43.0754C171.428 42.8452 172.353 42.679 173.307 42.5768C174.458 42.4575 175.391 42.3509 176.107 42.2572C176.823 42.1549 177.343 42.0015 177.667 41.7969C177.999 41.5839 178.165 41.2557 178.165 40.8126V40.7359C178.165 39.7728 177.88 39.0271 177.309 38.4986C176.738 37.9702 175.915 37.706 174.842 37.706C173.708 37.706 172.809 37.9532 172.144 38.4475C171.488 38.9418 171.045 39.5256 170.815 40.1989L166.494 39.5853C166.834 38.3921 167.397 37.395 168.181 36.5938C168.965 35.7842 169.924 35.179 171.057 34.7785C172.191 34.3694 173.444 34.1648 174.816 34.1648C175.762 34.1648 176.704 34.2756 177.641 34.4972C178.579 34.7188 179.435 35.0853 180.211 35.5967C180.986 36.0995 181.609 36.7856 182.077 37.6549C182.555 38.5242 182.793 39.6109 182.793 40.9148V54.0569H178.344V51.3594H178.191C177.91 51.9049 177.513 52.4163 177.002 52.8935C176.499 53.3623 175.864 53.7415 175.097 54.0313C174.339 54.3126 173.448 54.4532 172.425 54.4532ZM173.627 51.0526C174.556 51.0526 175.361 50.8694 176.043 50.5029C176.725 50.1279 177.249 49.6336 177.616 49.02C177.991 48.4063 178.178 47.7373 178.178 47.0129V44.6989C178.033 44.8182 177.786 44.929 177.437 45.0313C177.096 45.1336 176.712 45.2231 176.286 45.2998C175.86 45.3765 175.438 45.4447 175.021 45.5043C174.603 45.564 174.241 45.6151 173.934 45.6577C173.244 45.7515 172.626 45.9049 172.08 46.118C171.535 46.331 171.104 46.6293 170.789 47.0129C170.474 47.3879 170.316 47.8736 170.316 48.4702C170.316 49.3225 170.627 49.966 171.249 50.4006C171.871 50.8353 172.664 51.0526 173.627 51.0526ZM194.734 54.4021C193.191 54.4021 191.81 54.0057 190.592 53.2131C189.373 52.4205 188.41 51.27 187.702 49.7614C186.995 48.2529 186.641 46.4205 186.641 44.2643C186.641 42.0825 186.999 40.2415 187.715 38.7415C188.44 37.233 189.415 36.0952 190.643 35.3282C191.87 34.5526 193.238 34.1648 194.746 34.1648C195.897 34.1648 196.843 34.3609 197.584 34.7529C198.326 35.1364 198.914 35.6009 199.349 36.1464C199.783 36.6833 200.12 37.1904 200.359 37.6677H200.55V27.8751H205.191V54.0569H200.64V50.9631H200.359C200.12 51.4404 199.775 51.9475 199.323 52.4844C198.871 53.0129 198.275 53.4646 197.533 53.8396C196.792 54.2146 195.859 54.4021 194.734 54.4021ZM196.025 50.6052C197.005 50.6052 197.84 50.341 198.53 49.8126C199.221 49.2756 199.745 48.5299 200.103 47.5754C200.461 46.6208 200.64 45.5086 200.64 44.2387C200.64 42.9688 200.461 41.8651 200.103 40.9276C199.754 39.9901 199.234 39.2614 198.543 38.7415C197.861 38.2217 197.022 37.9617 196.025 37.9617C194.994 37.9617 194.133 38.2302 193.442 38.7671C192.752 39.304 192.232 40.0455 191.883 40.9915C191.533 41.9376 191.359 43.02 191.359 44.2387C191.359 45.466 191.533 46.5611 191.883 47.5242C192.241 48.4788 192.765 49.233 193.455 49.787C194.154 50.3325 195.011 50.6052 196.025 50.6052ZM218.816 54.4404C216.847 54.4404 215.147 54.0313 213.715 53.2131C212.292 52.3864 211.196 51.2188 210.429 49.7103C209.662 48.1932 209.279 46.4077 209.279 44.3538C209.279 42.3339 209.662 40.5611 210.429 39.0356C211.205 37.5015 212.287 36.3083 213.676 35.456C215.066 34.5952 216.698 34.1648 218.573 34.1648C219.783 34.1648 220.925 34.3609 221.999 34.7529C223.081 35.1364 224.036 35.733 224.863 36.5427C225.698 37.3523 226.354 38.3836 226.831 39.6364C227.309 40.8807 227.547 42.3637 227.547 44.0853V45.5043H211.452V42.385H223.111C223.103 41.4986 222.911 40.7103 222.536 40.02C222.161 39.3211 221.637 38.7714 220.963 38.3708C220.299 37.9702 219.523 37.77 218.637 37.77C217.691 37.77 216.86 38.0001 216.144 38.4603C215.428 38.912 214.87 39.5086 214.469 40.2501C214.077 40.983 213.877 41.7884 213.868 42.6663V45.3893C213.868 46.5313 214.077 47.5114 214.495 48.3296C214.912 49.1393 215.496 49.7614 216.246 50.1961C216.996 50.6222 217.874 50.8353 218.88 50.8353C219.553 50.8353 220.162 50.7415 220.708 50.554C221.253 50.358 221.726 50.0725 222.127 49.6975C222.527 49.3225 222.83 48.858 223.034 48.304L227.355 48.7898C227.083 49.9319 226.563 50.929 225.796 51.7813C225.037 52.6251 224.066 53.2813 222.881 53.7501C221.696 54.2103 220.341 54.4404 218.816 54.4404ZM231.462 54.0569V34.4205H235.886V37.7572H236.116C236.525 36.6322 237.202 35.7543 238.148 35.1236C239.094 34.4844 240.224 34.1648 241.536 34.1648C242.866 34.1648 243.986 34.4887 244.898 35.1364C245.819 35.7756 246.467 36.6492 246.842 37.7572H247.046C247.481 36.6663 248.214 35.7969 249.245 35.1492C250.285 34.493 251.516 34.1648 252.94 34.1648C254.746 34.1648 256.221 34.7359 257.363 35.8779C258.505 37.02 259.076 38.6861 259.076 40.8765V54.0569H254.435V41.5924C254.435 40.3736 254.111 39.483 253.464 38.9205C252.816 38.3495 252.023 38.064 251.086 38.064C249.969 38.064 249.096 38.4134 248.465 39.1123C247.843 39.8026 247.532 40.7018 247.532 41.8097V54.0569H242.994V41.4006C242.994 40.3864 242.687 39.5768 242.073 38.9717C241.468 38.3665 240.675 38.064 239.695 38.064C239.03 38.064 238.425 38.2344 237.88 38.5754C237.334 38.9077 236.9 39.3807 236.576 39.9944C236.252 40.5995 236.09 41.3069 236.09 42.1165V54.0569H231.462ZM265.944 61.4205C265.314 61.4205 264.73 61.3694 264.193 61.2671C263.664 61.1734 263.242 61.0626 262.927 60.9347L264.001 57.3296C264.674 57.5256 265.275 57.6194 265.804 57.6109C266.332 57.6023 266.796 57.4361 267.197 57.1123C267.606 56.7969 267.951 56.2685 268.233 55.5271L268.629 54.466L261.508 34.4205H266.417L270.943 49.2501H271.147L275.686 34.4205H280.608L272.745 56.4347C272.379 57.4745 271.893 58.3651 271.288 59.1066C270.683 59.8566 269.941 60.4276 269.064 60.8197C268.194 61.2202 267.154 61.4205 265.944 61.4205Z" fill="white"/>
<path d="M286.661 54.3381C285.885 54.3381 285.22 54.0654 284.667 53.52C284.113 52.9745 283.84 52.3097 283.848 51.5256C283.84 50.7586 284.113 50.1023 284.667 49.5569C285.22 49.0114 285.885 48.7387 286.661 48.7387C287.411 48.7387 288.063 49.0114 288.617 49.5569C289.179 50.1023 289.465 50.7586 289.473 51.5256C289.465 52.0455 289.328 52.5185 289.064 52.9447C288.809 53.3708 288.468 53.7117 288.042 53.9674C287.624 54.2146 287.164 54.3381 286.661 54.3381Z" fill="#FAFF00"/>
<defs>
<clipPath id="clip0_10_26">
<rect width="72.1239" height="72.1239" fill="white" transform="translate(0.267578)"/>
</clipPath>
</defs>
</svg>
