<svg width="58" height="61" viewBox="0 0 58 61" fill="none" xmlns="http://www.w3.org/2000/svg">
<path d="M22.6925 1.66735C21.1041 2.04304 18.0182 3.21705 15.8853 4.3441C8.35211 8.19486 2.40723 16.1312 0.637376 24.725C-3.31075 44.0257 11.6195 62.0586 30.5887 60.9315C37.9404 60.4619 44.1576 57.5973 49.4217 52.1499C54.6859 46.7025 57.4542 40.2689 57.908 32.6613C58.9971 12.9848 41.4347 -2.51213 22.6925 1.66735ZM35.1268 6.83301C39.1203 7.9131 42.7508 10.1672 45.9728 13.4544C55.5028 23.3161 55.5028 38.7661 45.9728 48.5809C36.4882 58.4426 21.5126 58.4426 12.028 48.5809C9.03283 45.5285 6.80917 41.7247 5.67465 37.6391C4.72165 34.3049 4.72165 27.7304 5.67465 24.3962C8.03445 16.0373 14.8416 9.04015 22.6925 6.87997C25.9599 5.98772 31.814 5.94076 35.1268 6.83301Z" fill="white"/>
<path d="M23.2626 15.8412L23.1264 18.3301L20.0859 18.471L17 18.6119V20.2086C17 21.7113 17.0908 21.8052 18.7245 21.9461L20.4036 22.087L20.5397 30.2581C20.6758 39.0867 20.6305 39.2276 18.2707 39.2276C17.1361 39.2276 17 39.4154 17 40.8712V42.5148H20.1767H23.3533V45.3794V48.197L24.8509 48.0561C26.3031 47.9153 26.3031 47.8683 26.4392 45.1915C26.5754 42.9374 26.7115 42.5148 27.4376 42.5148C28.1637 42.5148 28.2998 42.9374 28.436 45.1915C28.5721 47.8683 28.5721 47.9153 30.0697 48.0561L31.5219 48.197V45.3794V42.5148H33.0194C35.3338 42.5148 37.4667 41.7165 38.8736 40.3077C41.6418 37.5839 41.4603 32.8409 38.5559 30.446L37.0129 29.178L37.9659 28.0979C38.5105 27.4874 38.9643 26.1725 39.1005 24.9516C39.3274 23.0262 39.2366 22.6975 37.8298 21.2417C36.8314 20.2086 35.47 19.4102 33.927 19.0345L31.5219 18.3771V15.8882V13.3993H29.9335H28.3452V15.9821C28.3452 18.2362 28.2544 18.5649 27.4376 18.5649C26.6207 18.5649 26.53 18.2362 26.53 15.9821V13.3993H24.987H23.3987L23.2626 15.8412ZM29.7974 22.1339C31.7488 22.4627 33.3371 23.8245 33.3371 25.1864C33.3371 25.7029 32.8379 26.6422 32.2026 27.2526C31.3403 28.1918 30.6596 28.4266 28.799 28.4266H26.53V25.1394C26.53 21.5235 26.4392 21.5704 29.7974 22.1339ZM33.7909 32.8879C34.6985 33.7332 34.9254 35.189 34.4262 36.6447C33.9724 37.8657 31.7488 38.758 29.0259 38.758H26.53V35.189V31.573L29.7066 31.8078C31.8849 31.9956 33.201 32.3244 33.7909 32.8879Z" fill="white"/>
</svg>
