<svg width="33" height="32" viewBox="0 0 33 32" fill="none" xmlns="http://www.w3.org/2000/svg">
<path d="M14.9453 0.15753C10.0521 0.675344 5.76454 3.38295 3.15896 7.61905C0.137454 12.5227 0.00289351 18.9111 2.81644 23.9208C4.30272 26.5598 6.47405 28.7247 9.03682 30.1221C11.2204 31.3137 13.6302 31.9688 15.8933 31.9938L16.719 32L16.7374 25.8049L16.7496 19.6161H15.0676H13.3856V17.6197V15.6233L15.0554 15.6109L16.719 15.5921L16.7557 13.5022C16.7863 11.6056 16.7985 11.3685 16.9209 10.9131C17.3918 9.19121 18.5111 8.04328 20.2054 7.5629C20.6457 7.43813 20.8415 7.42565 22.132 7.42565C22.921 7.41941 23.8385 7.44436 24.1688 7.47556L24.7621 7.52547V9.32222V11.119L23.3125 11.1439C21.8629 11.1626 21.8568 11.1626 21.5387 11.3311C20.8659 11.6929 20.7864 11.9862 20.7864 14.0449V15.6233H22.7131C23.7712 15.6233 24.6398 15.6421 24.6398 15.667C24.6398 15.6982 24.5297 16.5716 24.3951 17.6135C24.2605 18.6616 24.1504 19.535 24.1504 19.5662C24.1504 19.5912 23.392 19.6161 22.4684 19.6161H20.7864V25.5117C20.7864 28.7559 20.7987 31.4073 20.8109 31.4073C20.9271 31.4073 22.3828 30.8458 22.9333 30.59C24.7743 29.7291 26.1994 28.6935 27.6674 27.1587C28.9457 25.8174 29.7347 24.6633 30.5482 22.9538C31.2699 21.4316 31.7654 19.7347 31.9917 17.9941C32.0895 17.2205 32.0895 14.8185 31.9917 14.0949C31.4779 10.4078 29.9855 7.30087 27.5083 4.77419C25.0801 2.30365 22.0586 0.756449 18.6151 0.238634C17.8628 0.126337 15.6915 0.0764275 14.9453 0.15753Z" fill="white"/>
</svg>
