<svg width="33" height="32" viewBox="0 0 33 32" fill="none" xmlns="http://www.w3.org/2000/svg">
<path d="M14.945 0.15753C10.0519 0.675344 5.7643 3.38295 3.15871 7.61905C0.13721 12.5227 0.00264937 18.9111 2.81619 23.9208C4.30248 26.5598 6.4738 28.7247 9.03657 30.1221C11.2201 31.3137 13.63 31.9688 15.8931 31.9938L16.7188 32L16.7371 25.8049L16.7494 19.6161H15.0673H13.3853V17.6197V15.6233L15.0551 15.6109L16.7188 15.5921L16.7555 13.5022C16.7861 11.6056 16.7983 11.3685 16.9206 10.9131C17.3916 9.19121 18.5109 8.04328 20.2051 7.5629C20.6455 7.43813 20.8412 7.42565 22.1318 7.42565C22.9208 7.41941 23.8383 7.44436 24.1685 7.47556L24.7618 7.52547V9.32222V11.119L23.3123 11.1439C21.8627 11.1626 21.8565 11.1626 21.5385 11.3311C20.8657 11.6929 20.7862 11.9862 20.7862 14.0449V15.6233H22.7128C23.771 15.6233 24.6395 15.6421 24.6395 15.667C24.6395 15.6982 24.5294 16.5716 24.3949 17.6135C24.2603 18.6616 24.1502 19.535 24.1502 19.5662C24.1502 19.5912 23.3918 19.6161 22.4682 19.6161H20.7862V25.5117C20.7862 28.7559 20.7984 31.4073 20.8106 31.4073C20.9269 31.4073 22.3826 30.8458 22.933 30.59C24.7741 29.7291 26.1992 28.6935 27.6671 27.1587C28.9455 25.8174 29.7345 24.6633 30.548 22.9538C31.2697 21.4316 31.7651 19.7347 31.9914 17.9941C32.0893 17.2205 32.0893 14.8185 31.9914 14.0949C31.4776 10.4078 29.9852 7.30087 27.5081 4.77419C25.0799 2.30365 22.0584 0.756449 18.6149 0.238634C17.8625 0.126337 15.6912 0.0764275 14.945 0.15753Z" fill="#8D8CDB"/>
</svg>
