<svg width="32" height="32" viewBox="0 0 32 32" fill="none" xmlns="http://www.w3.org/2000/svg">
<path d="M6.94816 0.810854C5.15974 1.07355 3.74521 1.77 2.45531 3.03461C1.12801 4.33588 0.40517 5.78988 0.162144 7.61654C0.0686732 8.33132 0.0686732 24.3864 0.162144 25.1012C0.40517 26.9278 1.12801 28.3818 2.45531 29.6831C3.7826 30.9843 5.26567 31.693 7.12887 31.9313C7.85794 32.0229 24.2341 32.0229 24.9632 31.9313C26.8264 31.693 28.3094 30.9843 29.6367 29.6831C30.964 28.3818 31.6869 26.9278 31.9299 25.1012C32.0234 24.3864 32.0234 8.33132 31.9299 7.61654C31.6869 5.78988 30.964 4.33588 29.6367 3.03461C28.3094 1.73335 26.8264 1.02468 24.9632 0.786417C24.1656 0.68256 7.65231 0.706997 6.94816 0.810854ZM25.6237 3.57223C26.3279 3.81049 26.4836 3.88991 27.0632 4.2809C27.9854 4.90404 28.7145 5.87541 29.0821 6.96896L29.2878 7.5921V16.3588C29.2878 24.7468 29.2815 25.1439 29.1694 25.4921C28.7519 26.8178 28.029 27.8014 26.9635 28.5101C26.5023 28.8156 26.1035 28.9927 25.4555 29.1943L24.9881 29.341H16.046H7.10394L6.46834 29.1394C4.72354 28.5773 3.50218 27.3249 2.92266 25.4921C2.8105 25.1439 2.80426 24.7468 2.80426 16.3588C2.80426 7.97087 2.8105 7.57377 2.92266 7.22555C3.36509 5.83264 4.13779 4.81851 5.2906 4.10984C5.77665 3.81049 6.61166 3.49281 7.12887 3.40728C7.28465 3.38284 11.3849 3.36451 16.233 3.37062L25.0504 3.37673L25.6237 3.57223Z" fill="#8D8CDB"/>
<path d="M24.2716 5.99759C23.8291 6.09534 23.5737 6.22974 23.2745 6.5291C22.8695 6.93842 22.7449 7.26221 22.7449 7.89757C22.7449 8.37408 22.7698 8.49016 22.9131 8.75286C23.2558 9.38822 23.8354 9.76088 24.5582 9.80975C25.0879 9.8403 25.3683 9.76699 25.8107 9.47375C27.0508 8.65511 26.9075 6.79179 25.5615 6.16254C25.1003 5.94872 24.7327 5.89985 24.2716 5.99759Z" fill="#8D8CDB"/>
<path d="M15.024 8.60632C12.0143 9.01564 9.44693 11.0683 8.51222 13.8297C8.19442 14.7705 8.10718 15.3143 8.10718 16.3589C8.10718 17.4036 8.19442 17.9473 8.51222 18.8943C9.26622 21.1058 11.2104 23.0058 13.4787 23.7511C14.4258 24.0566 14.9867 24.1421 16.046 24.1421C17.1053 24.1421 17.6662 24.0566 18.6133 23.7511C20.8816 23.0058 22.8258 21.1058 23.5798 18.8943C23.8976 17.9473 23.9848 17.4036 23.9848 16.3589C23.9848 14.9905 23.7169 13.8725 23.1124 12.7545C21.9596 10.6346 19.978 9.17448 17.5727 8.69185C16.9745 8.56966 15.616 8.52079 15.024 8.60632ZM17.6475 11.4043C18.3142 11.6182 18.4949 11.7037 19.0059 12.0397C20.0528 12.73 20.7569 13.6892 21.162 14.9538C21.2866 15.3509 21.3115 15.5403 21.3115 16.3589C21.3115 17.367 21.2368 17.7396 20.8691 18.5399C20.408 19.5663 19.3175 20.6354 18.2644 21.0936C17.4543 21.4479 17.0742 21.5212 16.046 21.5212C15.0178 21.5212 14.6377 21.4479 13.8276 21.0936C12.7745 20.6354 11.684 19.5663 11.2229 18.5399C10.8552 17.7396 10.7805 17.367 10.7805 16.3589C10.7805 15.5403 10.8054 15.3509 10.93 14.9538C11.1419 14.294 11.3288 13.9091 11.684 13.4021C12.3882 12.4001 13.3727 11.7098 14.5816 11.3616C15.1985 11.1844 15.292 11.1722 16.2329 11.1966C16.9745 11.215 17.1427 11.2394 17.6475 11.4043Z" fill="#8D8CDB"/>
</svg>
