<svg width="32" height="32" viewBox="0 0 32 32" fill="none" xmlns="http://www.w3.org/2000/svg">
<path d="M6.94791 0.810854C5.15949 1.07355 3.74496 1.77 2.45506 3.03461C1.12777 4.33588 0.404925 5.78988 0.1619 7.61654C0.0684291 8.33132 0.0684291 24.3864 0.1619 25.1012C0.404925 26.9278 1.12777 28.3818 2.45506 29.6831C3.78235 30.9843 5.26543 31.693 7.12862 31.9313C7.8577 32.0229 24.2339 32.0229 24.9629 31.9313C26.8261 31.693 28.3092 30.9843 29.6365 29.6831C30.9638 28.3818 31.6866 26.9278 31.9297 25.1012C32.0231 24.3864 32.0231 8.33132 31.9297 7.61654C31.6866 5.78988 30.9638 4.33588 29.6365 3.03461C28.3092 1.73335 26.8261 1.02468 24.9629 0.786417C24.1653 0.68256 7.65206 0.706997 6.94791 0.810854ZM25.6235 3.57223C26.3276 3.81049 26.4834 3.88991 27.0629 4.2809C27.9852 4.90404 28.7142 5.87541 29.0819 6.96896L29.2875 7.5921V16.3588C29.2875 24.7468 29.2813 25.1439 29.1691 25.4921C28.7516 26.8178 28.0288 27.8014 26.9632 28.5101C26.5021 28.8156 26.1033 28.9927 25.4552 29.1943L24.9879 29.341H16.0458H7.1037L6.46809 29.1394C4.7233 28.5773 3.50194 27.3249 2.92242 25.4921C2.81025 25.1439 2.80402 24.7468 2.80402 16.3588C2.80402 7.97087 2.81025 7.57377 2.92242 7.22555C3.36485 5.83264 4.13754 4.81851 5.29035 4.10984C5.7764 3.81049 6.61141 3.49281 7.12862 3.40728C7.28441 3.38284 11.3847 3.36451 16.2327 3.37062L25.0502 3.37673L25.6235 3.57223Z" fill="white"/>
<path d="M24.2713 5.99759C23.8289 6.09534 23.5734 6.22974 23.2743 6.5291C22.8693 6.93842 22.7446 7.26221 22.7446 7.89757C22.7446 8.37408 22.7696 8.49016 22.9129 8.75286C23.2556 9.38822 23.8351 9.76088 24.558 9.80975C25.0876 9.8403 25.3681 9.76699 25.8105 9.47375C27.0505 8.65511 26.9072 6.79179 25.5612 6.16254C25.1001 5.94872 24.7325 5.89985 24.2713 5.99759Z" fill="#D2D1F9"/>
<path d="M15.0238 8.6062C12.014 9.01551 9.44669 11.0682 8.51198 13.8296C8.19417 14.7704 8.10693 15.3141 8.10693 16.3588C8.10693 17.4035 8.19417 17.9472 8.51198 18.8941C9.26598 21.1057 11.2102 23.0057 13.4784 23.751C14.4256 24.0564 14.9864 24.142 16.0458 24.142C17.1051 24.142 17.6659 24.0564 18.6131 23.751C20.8813 23.0057 22.8255 21.1057 23.5795 18.8941C23.8973 17.9472 23.9846 17.4035 23.9846 16.3588C23.9846 14.9903 23.7166 13.8724 23.1122 12.7544C21.9594 10.6345 19.9778 9.17435 17.5725 8.69172C16.9742 8.56954 15.6158 8.52067 15.0238 8.6062ZM17.6472 11.4042C18.314 11.618 18.4947 11.7036 19.0057 12.0396C20.0526 12.7299 20.7567 13.6891 21.1617 14.9537C21.2864 15.3508 21.3113 15.5402 21.3113 16.3588C21.3113 17.3668 21.2365 17.7395 20.8689 18.5398C20.4077 19.5662 19.3172 20.6353 18.2641 21.0935C17.4541 21.4478 17.0739 21.5211 16.0458 21.5211C15.0176 21.5211 14.6375 21.4478 13.8274 21.0935C12.7743 20.6353 11.6838 19.5662 11.2226 18.5398C10.855 17.7395 10.7802 17.3668 10.7802 16.3588C10.7802 15.5402 10.8051 15.3508 10.9298 14.9537C11.1416 14.2939 11.3286 13.909 11.6838 13.4019C12.3879 12.4 13.3725 11.7097 14.5814 11.3615C15.1983 11.1843 15.2918 11.1721 16.2327 11.1965C16.9742 11.2148 17.1425 11.2393 17.6472 11.4042Z" fill="white"/>
</svg>
