<svg width="60" height="61" viewBox="0 0 60 61" fill="none" xmlns="http://www.w3.org/2000/svg">
<path d="M15.1405 1.23125C13.6874 1.9691 12.8905 2.85451 12.1405 4.42858C10.8749 7.18319 11.203 9.39672 13.1718 11.7578C16.4999 15.7422 22.2187 14.7092 24.1874 9.74105C25.0312 7.57671 24.9843 6.1994 23.953 4.13344C23.1562 2.60856 23.1562 2.36261 23.8124 1.87072C26.2499 0.00151253 18.6093 -0.588762 15.1405 1.23125ZM21.3749 3.8383C23.4843 6.05183 23.578 8.36374 21.6093 10.6265C20.4374 12.0038 19.9218 12.2497 18.0937 12.2497C15.3749 12.2497 13.6405 10.6265 13.2655 7.67509C13.0312 5.85507 13.1718 5.46156 14.6718 3.88749C16.9218 1.52639 19.1249 1.4772 21.3749 3.8383Z" fill="white"/>
<path d="M19.7815 7.13398C19.8753 8.06858 20.1565 8.75723 20.3909 8.65885C21.094 8.51128 20.9534 5.95343 20.2503 5.70748C19.7815 5.55991 19.6409 5.95343 19.7815 7.13398Z" fill="white"/>
<path d="M53.6717 6.44548C48.5623 7.92117 47.7186 8.56063 48.9842 10.0363C49.8748 11.0693 49.828 11.1185 42.6092 18.7921C32.6717 29.3678 33.3748 28.2365 35.1561 30.4008C35.9998 31.3846 37.0311 32.1716 37.453 32.1716C37.8748 32.1716 41.8123 28.4332 46.1717 23.8094L54.0936 15.4964L55.2186 16.5785C56.2498 17.6115 56.3436 17.6115 56.9061 16.8245C57.7498 15.6439 60.1405 6.19953 59.7655 5.60925C59.3436 4.9206 58.453 5.01898 53.6717 6.44548ZM56.953 11.0201C56.5311 12.8893 56.0623 14.4634 55.9686 14.4634C55.8748 14.4634 55.3592 14.1682 54.8436 13.8731C53.9998 13.2828 53.1561 14.0207 45.703 21.8418C37.9217 30.0073 37.453 30.4008 36.703 29.5646C35.9061 28.7775 36.2811 28.2857 44.0623 20.1202C51.703 12.1023 52.2186 11.4628 51.6561 10.479C51.328 9.88875 51.0936 9.39685 51.1873 9.29847C51.4686 9.00334 57.4217 7.23251 57.6092 7.38008C57.703 7.47846 57.4217 9.10172 56.953 11.0201Z" fill="white"/>
<path d="M33.0469 14.9552C32.9062 15.2011 32.0156 15.447 31.125 15.447C30 15.447 29.5312 15.693 29.5312 16.1849C29.5312 16.6768 30 16.9227 30.9375 16.9227C32.0156 16.9227 32.3438 17.1195 32.3438 17.9065C32.3438 18.7919 31.9688 18.8903 27.7969 18.9887L23.2031 19.1363L23.0625 25.3833L22.9219 31.6796H18.5156H14.0625V24.8423C14.0625 19.8741 14.2031 17.8573 14.6719 17.5622C14.9531 17.3654 17.8125 17.0703 21 16.9227C28.7344 16.5784 28.5 15.7422 20.5781 15.5454L14.3906 15.3979L8.71875 21.3498C5.57812 24.5963 2.76562 27.2525 2.53125 27.2525C1.82812 27.2525 0 29.4169 0 30.2531C0 31.3353 2.95312 34.1391 4.125 34.1391C4.6875 34.1391 5.48438 33.5488 5.95312 32.811C6.42188 32.1223 8.01562 30.1547 9.46875 28.5315L12.1875 25.5309V36.9429C12.1875 44.0262 12 48.4533 11.7188 48.65C11.4375 48.7976 11.25 49.4862 11.25 50.1257C11.25 51.2571 11.0625 51.3063 8.10938 51.4538L4.92188 51.6014V55.7825V59.9636L31.4062 60.1112C45.9844 60.1604 58.3594 60.1112 58.9688 59.9636L60 59.7177L59.9062 48.0106L59.7656 36.3526H57.6562C56.1094 36.3526 55.5469 36.5494 55.5469 37.0905C55.5469 37.5332 56.0625 37.8775 56.8594 37.9759L58.125 38.1234V48.2073V58.242H50.1562H42.1875V48.1581V38.1234L47.4844 37.9759C51.7969 37.8775 52.7344 37.6807 52.7344 37.0905C52.7344 36.451 51.75 36.3526 46.6406 36.3526H40.5469L40.4062 40.1402L40.2656 43.977H37.5469C34.875 43.977 34.7812 43.9278 34.5 42.5013C34.3125 41.3208 33.9375 40.9273 32.8594 40.7305L31.4531 40.4354L31.3125 35.418L31.1719 30.4499L28.125 30.2039L25.0781 29.958L24.9375 25.3342L24.7969 20.7103L31.0312 20.9071L37.2656 21.1039L37.4062 18.4968C37.5 16.9719 37.3125 15.5454 36.9844 15.1519C36.375 14.3649 33.4688 14.2173 33.0469 14.9552ZM35.625 17.9065C35.625 18.8903 35.3906 19.3822 34.9219 19.3822C34.4531 19.3822 34.2188 18.8903 34.2188 17.9065C34.2188 16.9227 34.4531 16.4308 34.9219 16.4308C35.3906 16.4308 35.625 16.9227 35.625 17.9065ZM9.09375 25.826C6.9375 28.0888 5.71875 29.0234 5.4375 28.7282C5.10938 28.3839 6.14062 27.0066 8.4375 24.5471C11.0156 21.8417 12 21.0547 12.0938 21.6449C12.2344 22.1368 11.0156 23.8093 9.09375 25.826ZM3.9375 30.1547C5.20312 31.6304 4.35938 32.4666 3 31.1385C2.39062 30.5483 2.01562 29.8596 2.15625 29.6628C2.53125 28.9742 3.04688 29.1218 3.9375 30.1547ZM30 36.1067V40.5337H28.5938C27.2812 40.5337 27.2344 40.4845 27.0938 37.6807L26.9531 34.8769L22.6406 34.7294C19.1719 34.631 18.2812 34.4342 18.2812 33.8931C18.2812 33.3029 18.9844 33.1553 21.3281 33.1553C23.625 33.1553 24.4688 32.9585 24.6562 32.4175C24.8906 31.8764 25.6406 31.6796 27.4688 31.6796H30V36.1067ZM16.5 36.451C16.5938 39.0581 16.7812 39.7959 17.3438 39.7959C17.8125 39.7959 18.0938 39.2056 18.1875 37.9267L18.3281 36.1067H21.8438H25.3125V38.1726C25.3125 42.1078 24.7969 43.9278 23.7188 44.0754C22.8281 44.223 22.7344 44.5673 22.5938 47.8138C22.4531 50.9619 22.3594 51.3554 21.5625 51.3554C20.8594 51.3554 20.625 51.0111 20.625 50.1257C20.625 49.2403 20.2969 48.8468 19.4531 48.6008C18.4688 48.3549 18.3281 48.0106 18.1875 45.5511C18.0938 43.4359 17.8594 42.7473 17.3438 42.7473C16.8281 42.7473 16.5938 43.4359 16.5 45.5511C16.3594 48.2073 16.2656 48.4041 15.2344 48.4041H14.0625V40.7797V33.1553H15.2344C16.3125 33.1553 16.3594 33.3029 16.5 36.451ZM32.8125 43.2392C32.8125 43.8294 32.1562 43.977 29.7656 43.977C27.375 43.977 26.7188 43.8294 26.7188 43.2392C26.7188 42.6489 27.375 42.5013 29.7656 42.5013C32.1562 42.5013 32.8125 42.6489 32.8125 43.2392ZM40.3125 51.8473V58.242H32.3438H24.375V51.8473V45.4527H32.3438H40.3125V51.8473ZM19.2188 50.8636C19.2188 51.1587 17.8125 51.3554 15.9375 51.3554C14.0625 51.3554 12.6562 51.1587 12.6562 50.8636C12.6562 50.5684 14.0625 50.3717 15.9375 50.3717C17.8125 50.3717 19.2188 50.5684 19.2188 50.8636ZM22.5 55.7825V58.242H14.2969H6.09375V55.7825V53.323H14.2969H22.5V55.7825Z" fill="white"/>
</svg>
