<svg width="172" height="40" viewBox="0 0 172 40" fill="none" xmlns="http://www.w3.org/2000/svg">
<path d="M14.9382 0.083786C12.9766 0.305996 10.8235 1.09523 9.21434 2.16796C5.84287 4.4054 3.63609 8.09868 3.33726 11.9835L3.27596 12.7268L2.85453 12.8724C2.11893 13.1252 1.76646 13.6463 1.391 15.0945C1.19178 15.8301 1.11515 17.5158 1.23775 18.3127C1.47529 19.8682 2.40244 21.9064 2.9618 22.1056C3.22998 22.1976 3.55181 22.029 3.65908 21.7302C3.72038 21.5539 3.69739 21.462 3.52116 21.1631C2.73193 19.8452 2.40244 18.7954 2.34114 17.4545C2.28751 16.4277 2.38712 15.6538 2.67829 14.788C2.90816 14.083 3.0231 13.9451 3.37557 13.9451C3.62843 13.9451 3.75869 14.0524 4.95403 15.2401C5.6743 15.9527 6.38691 16.5963 6.53249 16.6729C6.90029 16.8722 7.91939 16.8722 8.27186 16.6806C8.67031 16.4661 9.05343 16.0906 9.23733 15.7535C9.45954 15.332 9.47487 14.3436 9.26032 13.9451C9.18369 13.7995 8.54005 13.0869 7.82744 12.3667C6.63977 11.1713 6.53249 11.0411 6.53249 10.7882C6.53249 10.4587 6.66275 10.3361 7.22977 10.1292C8.3868 9.70014 10.4403 9.60052 11.4058 9.91468C11.4594 9.93767 11.4518 10.1369 11.3905 10.5813C11.2372 11.5851 11.2526 11.9529 11.4748 12.3667C11.651 12.7038 11.6587 12.7574 11.582 13.2785C11.3905 14.6347 11.8655 16.1442 12.808 17.1787C13.0992 17.5005 13.1605 17.6154 13.1145 17.738C13.0839 17.8223 13.0532 18.0905 13.0532 18.3357C13.0456 18.7341 13.0302 18.7725 12.9153 18.7112C12.6701 18.5809 12.1874 18.5502 11.8196 18.6269C10.3484 18.941 9.74305 20.6881 10.7162 21.8221C11.1223 22.3048 11.5131 22.4811 12.1644 22.4811C12.4632 22.4887 12.7774 22.4581 12.877 22.4274C13.0456 22.3661 13.0456 22.3738 13.0456 23.0098V23.6534L12.4402 23.8986C11.5667 24.2358 10.9844 24.366 10.0189 24.4197C8.51706 24.4963 7.13782 24.1362 5.78924 23.3239C5.2452 22.9945 5.04598 22.9102 4.90806 22.9485C4.39467 23.1094 4.30272 23.6151 4.7165 23.9906C5.06897 24.3201 6.6934 25.094 7.429 25.2932L8.04965 25.4618L8.10329 25.8909C8.19524 26.6648 8.29485 26.9176 8.632 27.2394L8.96148 27.5459L9.09174 28.5804L9.22201 29.6225L8.88486 29.9749C8.12628 30.7565 8.10329 31.9212 8.82356 32.7257L9.11473 33.0552L8.91551 33.4C8.62434 33.9211 8.63966 34.6643 8.94616 35.2314C9.06876 35.4612 9.24499 35.7064 9.33694 35.7754L9.51318 35.9133L9.30629 36.3194C8.82356 37.3002 9.22967 38.4802 10.2411 39.0243C10.5553 39.1928 10.5706 39.1928 16.2561 39.2158C22.6083 39.2388 22.3784 39.2541 23.0067 38.7178C23.6887 38.1354 23.8879 37.1546 23.5048 36.3271L23.3132 35.921L23.5891 35.6145C23.9645 35.193 24.0871 34.8636 24.0871 34.2659C24.0871 33.8828 24.0411 33.6835 23.8956 33.3847L23.6963 33.0093L23.8802 32.8637C23.9875 32.7794 24.1637 32.5189 24.2863 32.2737C24.6771 31.4691 24.5162 30.5036 23.8726 29.906L23.5967 29.6378L23.727 28.5574C23.8113 27.9061 23.8956 27.454 23.9492 27.4387C24.0028 27.4233 24.1484 27.2931 24.2863 27.1552C24.5162 26.91 24.6925 26.3889 24.6925 25.9445C24.6925 25.8449 24.7921 25.3545 24.9223 24.8564C25.2135 23.6917 25.7958 22.5041 26.5774 21.4466C27.6808 19.9678 28.1865 19.0636 28.6999 17.6997C29.1597 16.4584 29.4202 15.2324 29.5121 13.8685L29.5581 13.1406L29.9412 13.0946C30.6921 13.0026 31.3894 12.4816 31.7419 11.7613C32.0024 11.2173 32.0024 10.3131 31.7419 9.76909C31.5044 9.2787 31.0599 8.84194 30.5695 8.61207C30.2324 8.45882 30.0485 8.42817 29.4278 8.42817H28.6846L28.3781 7.7692L28.0639 7.11023L28.3321 6.85737C29.106 6.12944 29.1597 4.88046 28.4394 4.0989C27.926 3.53954 27.6272 3.44759 26.3705 3.44759H25.2901L24.7461 2.99551C22.0336 0.765739 18.3786 -0.322323 14.9382 0.083786ZM17.9725 1.26379C19.7425 1.50133 21.344 2.08368 22.8688 3.05681C23.114 3.21006 23.3132 3.35564 23.3132 3.38629C23.3132 3.41694 21.8574 3.44759 20.0797 3.46292C16.9304 3.49357 16.8231 3.49356 16.3021 3.6698C14.1719 4.37474 12.7774 5.79229 11.9805 8.08336C11.8426 8.45882 11.7276 8.77298 11.72 8.78831C11.7046 8.79597 11.4211 8.75765 11.0916 8.69636C9.21434 8.35921 6.58613 8.82662 5.82755 9.63117C5.39845 10.0833 5.25287 10.8878 5.49806 11.4778C5.57469 11.6464 6.11106 12.2594 6.86964 13.0256C7.55926 13.7229 8.16459 14.3666 8.21056 14.4585C8.57836 15.1864 7.73549 15.9833 7.00756 15.6002C6.89263 15.5389 6.27197 14.9566 5.62066 14.3053L4.44065 13.1176L4.45597 12.5122C4.5326 9.86871 5.77391 6.97231 7.72783 4.91112C10.3407 2.13732 14.2026 0.758076 17.9725 1.26379ZM27.4739 4.75021C27.7038 4.9341 27.857 5.34787 27.7957 5.61606C27.7651 5.72334 27.6425 5.90723 27.5199 6.02217L27.29 6.24438L25.6656 6.28269C24.1331 6.321 24.0258 6.32866 23.75 6.49724C22.8535 7.05659 22.6696 8.20596 23.3592 8.96454C23.8802 9.53922 23.8419 9.53156 27.1598 9.57754L30.1251 9.61585L30.401 9.88403C30.9143 10.3821 30.945 11.0411 30.4699 11.5698C30.263 11.792 30.1098 11.8839 29.8186 11.9452C29.5734 11.9989 27.9107 12.0295 25.1522 12.0295H20.8689L20.4551 11.3935C20.2253 11.0334 19.5433 10.2365 18.8767 9.53922C18.2407 8.86493 17.5587 8.08336 17.3748 7.79985C17.1909 7.524 16.9227 7.21751 16.7925 7.1179C16.4937 6.91101 15.8653 6.83438 15.4669 6.97231C15.0378 7.11023 13.6892 8.65804 12.9306 9.8917C12.7391 10.1982 12.5858 10.3974 12.5858 10.3361C12.5858 10.0679 12.9919 8.61207 13.2371 8.00674C13.8118 6.57386 14.647 5.66203 15.919 5.0567C16.8538 4.61228 16.8461 4.61228 22.2865 4.60462C27.1751 4.59696 27.2824 4.59696 27.4739 4.75021ZM27.1674 7.85349C27.2824 8.09102 27.3743 8.31323 27.3743 8.35921C27.3743 8.41285 26.8762 8.42817 25.8725 8.41285C24.4013 8.38986 24.3706 8.38986 24.225 8.20596C24.0411 7.97609 24.0411 7.77687 24.2327 7.58531C24.3706 7.44738 24.4856 7.43206 25.6732 7.43206H26.9605L27.1674 7.85349ZM16.4707 8.52012C16.6469 8.78831 17.3365 9.57754 18.0032 10.2825C18.6698 10.9798 19.2751 11.6617 19.3517 11.792L19.4897 12.0295H18.5932C17.5511 12.0295 17.4131 12.0908 17.4131 12.5659C17.4131 13.0716 17.5587 13.1329 18.8997 13.1789L20.0567 13.2172L20.0797 13.8149C20.1256 15.0179 19.6199 16.0753 18.6238 16.8645C18.3326 17.0944 18.1717 17.1633 17.9495 17.1633H17.6507L17.7963 16.7419C17.8729 16.512 17.9802 16.0446 18.0338 15.7151C18.1181 15.1711 18.1104 15.0868 17.9955 14.9106C17.8422 14.6731 17.5434 14.5811 17.2905 14.7037C17.0607 14.8033 16.9994 14.9566 16.8538 15.7688C16.7312 16.4201 16.509 16.9794 16.3787 16.9641C16.2331 16.9411 15.9573 15.991 15.85 15.1481C15.7657 14.4355 15.7197 14.2823 15.5742 14.1597C15.3366 13.9681 15.0684 13.9834 14.8309 14.221C14.647 14.4125 14.6393 14.4355 14.693 15.0715C14.739 15.6309 14.8922 16.3894 15.0761 16.9871C15.1297 17.148 15.1068 17.1633 14.8462 17.1633C14.3252 17.1633 13.5053 16.4048 13.0456 15.4853C12.8004 14.9949 12.6395 14.1443 12.7007 13.6156L12.7544 13.1789H13.9574C15.214 13.1789 15.5971 13.1099 15.7274 12.8724C15.85 12.6425 15.8194 12.3513 15.6508 12.1828C15.5129 12.0448 15.3979 12.0295 14.3099 12.0295C13.6586 12.0295 13.1222 12.0142 13.1222 11.9912C13.1222 11.8763 13.7275 10.7729 14.0647 10.2672C14.8156 9.12545 15.7581 8.04505 15.9879 8.04505C16.1105 8.04505 16.2408 8.18297 16.4707 8.52012ZM28.3704 13.6156C28.3704 13.8608 28.3168 14.4049 28.2555 14.8263C27.926 17.0101 27.2517 18.5962 25.8035 20.5578C24.999 21.6459 24.5928 22.3508 24.2404 23.2243C23.9415 23.9676 23.6427 25.094 23.5737 25.6993C23.4895 26.4885 23.6427 26.4349 21.5892 26.4349H19.7885V25.7912C19.7885 25.2242 19.7655 25.1169 19.6123 24.9331C19.4743 24.7798 19.3671 24.7262 19.1678 24.7338C18.7464 24.7415 18.6391 24.9484 18.6391 25.7529V26.4349H16.417H14.1949V24.0595V21.6842H16.417H18.6391V22.2512C18.6391 22.7799 18.6545 22.8335 18.8384 22.9791C19.0912 23.1784 19.3364 23.186 19.5663 22.9945L19.7502 22.8489L19.7732 20.4812C19.7885 18.9027 19.7732 18.0215 19.7119 17.83C19.6276 17.5465 19.6352 17.5388 20.049 17.0791C20.8229 16.2209 21.2444 15.0945 21.2444 13.8762V13.1789H24.8074H28.3704V13.6156ZM18.6391 19.4238V20.5348H16.417H14.1949V19.4238V18.3127H16.417H18.6391V19.4238ZM12.7084 19.8988C12.9383 20.0444 13.0762 20.4046 13.0149 20.711C12.8693 21.485 11.7659 21.5922 11.4671 20.8643C11.3215 20.5271 11.3828 20.2283 11.651 19.9755C11.9652 19.6766 12.333 19.6536 12.7084 19.8988ZM13.0456 25.6686V26.4349H11.2066C9.79669 26.4349 9.35227 26.4119 9.33694 26.3353C9.31396 26.2893 9.28331 26.0977 9.26032 25.9138L9.21434 25.592H9.76604C10.7009 25.592 12.195 25.2779 13.0302 24.9101C13.0379 24.9024 13.0456 25.2472 13.0456 25.6686ZM22.6696 27.8294C22.6236 28.0823 22.4703 29.2547 22.4703 29.316C22.4703 29.3313 19.7502 29.3466 16.417 29.3466H10.3637L10.3331 29.1704C10.2947 28.9941 10.1338 27.7605 10.1338 27.6456C10.1338 27.6149 12.9613 27.5843 16.417 27.5843H22.7079L22.6696 27.8294ZM22.9378 30.6262C23.4358 30.9251 23.5048 31.584 23.0757 31.9978L22.8458 32.22L16.486 32.243C9.49785 32.266 9.81201 32.2813 9.55915 31.7986C9.41357 31.5151 9.41357 31.2392 9.55915 30.9557C9.80435 30.4806 9.49019 30.5036 16.4017 30.496C22.2175 30.496 22.7309 30.5036 22.9378 30.6262ZM22.6542 33.6299C23.0374 33.99 23.045 34.5571 22.6619 34.9402L22.4703 35.1317L16.6239 35.1547C13.4134 35.1701 10.6779 35.1547 10.5476 35.1317C10.0112 35.0398 9.70474 34.4268 9.93461 33.9287C10.1951 33.377 9.79669 33.4077 16.4707 33.4307L22.455 33.446L22.6542 33.6299ZM22.0872 36.4344C22.2098 36.4957 22.3631 36.6259 22.4244 36.7179C22.5776 36.9401 22.5776 37.4611 22.4244 37.6833C22.1409 38.0894 22.3018 38.0818 16.4017 38.0818C10.5553 38.0818 10.7162 38.0894 10.4173 37.691C10.1262 37.2926 10.2947 36.6566 10.7545 36.419C10.8924 36.3424 12.218 36.3194 16.4017 36.3194C21.0988 36.3194 21.8957 36.3347 22.0872 36.4344Z" fill="white"/>
<path d="M0.199223 4.48868C0.0766243 4.58829 0 4.71855 0 4.84881C0 5.20894 0.28351 6.09012 0.429096 6.20506C0.781568 6.47324 1.30261 6.21272 1.30261 5.77596C1.30261 5.36219 1.07274 4.60361 0.904167 4.45803C0.697281 4.28179 0.452083 4.28945 0.199223 4.48868Z" fill="#FAFF00"/>
<path d="M23.064 4.46576C22.9107 4.58836 22.6042 5.4772 22.6042 5.80669C22.6042 6.00591 22.9491 6.32007 23.1713 6.32007C23.4931 6.32007 23.723 6.0289 23.8609 5.46188C24.0218 4.78758 24.0141 4.74161 23.7919 4.5194C23.5774 4.29719 23.3015 4.2742 23.064 4.46576Z" fill="#FAFF00"/>
<path d="M3.27593 3.69201C3.00774 3.74564 2.85449 3.94487 2.85449 4.22838C2.85449 4.45825 2.92345 4.57319 3.29891 4.94865C3.65905 5.30112 3.79697 5.39307 3.98853 5.39307C4.31035 5.39307 4.54023 5.15553 4.54023 4.83371C4.54023 4.62682 4.45594 4.50422 4.10347 4.15942C3.63606 3.69967 3.52112 3.63837 3.27593 3.69201Z" fill="#FAFF00"/>
<path d="M30.3168 3.74555C30.0333 3.86814 29.4662 4.48114 29.3973 4.74166C29.3207 5.04816 29.5735 5.34699 29.9337 5.37764C30.1865 5.40063 30.2555 5.36232 30.6692 4.94089C31.1367 4.47348 31.2209 4.25893 31.0524 3.93711C30.9374 3.72256 30.585 3.63061 30.3168 3.74555Z" fill="#FAFF00"/>
<path d="M1.54436 5.99058C1.32215 6.17448 1.31449 6.56527 1.52904 6.77981C1.68995 6.94839 2.37191 7.15527 2.76269 7.15527C3.08451 7.15527 3.31438 6.9254 3.31438 6.59592C3.31438 6.25877 3.15347 6.12085 2.57879 5.97526C1.9658 5.81435 1.75891 5.82201 1.54436 5.99058Z" fill="#FAFF00"/>
<path d="M31.3588 5.9677C30.6615 6.13627 30.4163 6.59602 30.7994 7.01745C30.9527 7.18603 31.2362 7.19369 31.8492 7.04044C32.3702 6.90252 32.5848 6.71095 32.5848 6.38147C32.5848 5.89107 32.2017 5.76081 31.3588 5.9677Z" fill="#FAFF00"/>
<path d="M6.45586 18.0956C6.0191 18.2335 5.50571 18.6703 5.2835 19.0841C5.06129 19.4979 5.04597 20.4173 5.26052 20.8158C6.0191 22.2563 7.95769 22.3406 8.74692 20.9614C8.86952 20.7468 8.99212 20.4173 9.02277 20.2334C9.08407 19.8043 8.9155 19.1914 8.61666 18.7776C8.17224 18.1646 7.19145 17.8581 6.45586 18.0956ZM7.32171 19.199C8.2412 19.5515 7.89639 20.9461 6.93093 20.7851C6.18001 20.6625 5.98845 19.6741 6.63975 19.2756C6.90794 19.1147 7.05352 19.0994 7.32171 19.199Z" fill="#FAFF00"/>
<path d="M37.3264 13.3636H39.906L43.3605 21.7955H43.4969L46.9514 13.3636H49.531V25H47.5083V17.0057H47.4003L44.1844 24.9659H42.673L39.4571 16.9886H39.3492V25H37.3264V13.3636ZM53.0139 28.2727C52.7336 28.2727 52.4742 28.25 52.2355 28.2045C52.0007 28.1629 51.8132 28.1136 51.673 28.0568L52.1503 26.4545C52.4495 26.5417 52.7166 26.5833 52.9514 26.5795C53.1863 26.5758 53.3927 26.5019 53.5708 26.358C53.7526 26.2178 53.906 25.983 54.031 25.6534L54.2071 25.1818L51.0423 16.2727H53.2242L55.2355 22.8636H55.3264L57.3435 16.2727H59.531L56.0367 26.0568C55.8738 26.5189 55.6579 26.9148 55.3889 27.2443C55.12 27.5777 54.7905 27.8314 54.4003 28.0057C54.0139 28.1837 53.5518 28.2727 53.0139 28.2727ZM61.4458 25H59.1958L63.2923 13.3636H65.8946L69.9969 25H67.7469L64.6389 15.75H64.548L61.4458 25ZM61.5196 20.4375H67.656V22.1307H61.5196V20.4375ZM74.9798 25.1705C74.1086 25.1705 73.3605 24.9792 72.7355 24.5966C72.1143 24.214 71.6352 23.6856 71.298 23.0114C70.9647 22.3333 70.798 21.553 70.798 20.6705C70.798 19.7841 70.9685 19.0019 71.3094 18.3239C71.6503 17.642 72.1314 17.1117 72.7526 16.733C73.3776 16.3504 74.1162 16.1591 74.9685 16.1591C75.6768 16.1591 76.3037 16.2898 76.8492 16.5511C77.3984 16.8087 77.8359 17.1742 78.1617 17.6477C78.4874 18.1174 78.673 18.6667 78.7185 19.2955H76.7526C76.673 18.875 76.4836 18.5246 76.1844 18.2443C75.8889 17.9602 75.4931 17.8182 74.9969 17.8182C74.5764 17.8182 74.2071 17.9318 73.8889 18.1591C73.5708 18.3826 73.3227 18.7045 73.1446 19.125C72.9704 19.5455 72.8833 20.0492 72.8833 20.6364C72.8833 21.2311 72.9704 21.7424 73.1446 22.1705C73.3189 22.5947 73.5632 22.9223 73.8776 23.1534C74.1958 23.3807 74.5689 23.4943 74.9969 23.4943C75.2999 23.4943 75.5708 23.4375 75.8094 23.3239C76.0518 23.2064 76.2545 23.0379 76.4173 22.8182C76.5802 22.5985 76.692 22.3314 76.7526 22.017H78.7185C78.6692 22.6345 78.4874 23.1818 78.173 23.6591C77.8586 24.1326 77.4306 24.5038 76.8889 24.7727C76.3473 25.0379 75.7109 25.1705 74.9798 25.1705ZM82.9188 25.1761C82.3657 25.1761 81.8676 25.0777 81.4244 24.8807C80.9851 24.6799 80.6366 24.3845 80.379 23.9943C80.1252 23.6042 79.9983 23.1231 79.9983 22.5511C79.9983 22.0587 80.0892 21.6515 80.271 21.3295C80.4529 21.0076 80.701 20.75 81.0154 20.5568C81.3298 20.3636 81.6839 20.2178 82.0779 20.1193C82.4756 20.017 82.8866 19.9432 83.3108 19.8977C83.8222 19.8447 84.2369 19.7973 84.5551 19.7557C84.8733 19.7102 85.1044 19.642 85.2483 19.5511C85.396 19.4564 85.4699 19.3106 85.4699 19.1136V19.0795C85.4699 18.6515 85.343 18.3201 85.0892 18.0852C84.8354 17.8504 84.4699 17.733 83.9926 17.733C83.4888 17.733 83.0892 17.8428 82.7938 18.0625C82.5021 18.2822 82.3051 18.5417 82.2029 18.8409L80.2824 18.5682C80.4339 18.0379 80.6839 17.5947 81.0324 17.2386C81.3809 16.8788 81.807 16.6098 82.3108 16.4318C82.8146 16.25 83.3714 16.1591 83.9813 16.1591C84.4017 16.1591 84.8203 16.2083 85.2369 16.3068C85.6536 16.4053 86.0343 16.5682 86.379 16.7955C86.7237 17.0189 87.0002 17.3239 87.2085 17.7102C87.4207 18.0966 87.5267 18.5795 87.5267 19.1591V25H85.5494V23.8011H85.4813C85.3563 24.0436 85.1801 24.2708 84.9529 24.483C84.7294 24.6913 84.4472 24.8598 84.1063 24.9886C83.7691 25.1136 83.3733 25.1761 82.9188 25.1761ZM83.4529 23.6648C83.8657 23.6648 84.2237 23.5833 84.5267 23.4205C84.8298 23.2538 85.0627 23.0341 85.2256 22.7614C85.3923 22.4886 85.4756 22.1913 85.4756 21.8693V20.8409C85.4112 20.8939 85.3013 20.9432 85.146 20.9886C84.9945 21.0341 84.8241 21.0739 84.6347 21.108C84.4453 21.142 84.2578 21.1723 84.0722 21.1989C83.8866 21.2254 83.7256 21.2481 83.5892 21.267C83.2824 21.3087 83.0078 21.3769 82.7654 21.4716C82.5229 21.5663 82.3316 21.6989 82.1915 21.8693C82.0513 22.036 81.9813 22.2519 81.9813 22.517C81.9813 22.8958 82.1195 23.1818 82.396 23.375C82.6726 23.5682 83.0248 23.6648 83.4529 23.6648ZM92.8335 25.1534C92.1479 25.1534 91.5343 24.9773 90.9926 24.625C90.451 24.2727 90.0229 23.7614 89.7085 23.0909C89.3941 22.4205 89.2369 21.6061 89.2369 20.6477C89.2369 19.678 89.396 18.8598 89.7142 18.1932C90.0362 17.5227 90.4699 17.017 91.0154 16.6761C91.5608 16.3314 92.1688 16.1591 92.8392 16.1591C93.3506 16.1591 93.771 16.2462 94.1006 16.4205C94.4301 16.5909 94.6915 16.7973 94.8847 17.0398C95.0779 17.2784 95.2275 17.5038 95.3335 17.7159H95.4188V13.3636H97.4813V25H95.4585V23.625H95.3335C95.2275 23.8371 95.0741 24.0625 94.8733 24.3011C94.6726 24.536 94.4074 24.7367 94.0779 24.9034C93.7483 25.0701 93.3335 25.1534 92.8335 25.1534ZM93.4074 23.4659C93.843 23.4659 94.2142 23.3485 94.521 23.1136C94.8279 22.875 95.0608 22.5436 95.2199 22.1193C95.379 21.6951 95.4585 21.2008 95.4585 20.6364C95.4585 20.072 95.379 19.5814 95.2199 19.1648C95.0646 18.7481 94.8335 18.4242 94.5267 18.1932C94.2237 17.9621 93.8506 17.8466 93.4074 17.8466C92.9491 17.8466 92.5665 17.9659 92.2597 18.2045C91.9529 18.4432 91.7218 18.7727 91.5665 19.1932C91.4112 19.6136 91.3335 20.0947 91.3335 20.6364C91.3335 21.1818 91.4112 21.6686 91.5665 22.0966C91.7256 22.5208 91.9585 22.8561 92.2654 23.1023C92.576 23.3447 92.9566 23.4659 93.4074 23.4659ZM103.537 25.1705C102.662 25.1705 101.906 24.9886 101.27 24.625C100.637 24.2576 100.15 23.7386 99.8094 23.0682C99.4685 22.3939 99.298 21.6004 99.298 20.6875C99.298 19.7898 99.4685 19.0019 99.8094 18.3239C100.154 17.642 100.635 17.1117 101.253 16.733C101.87 16.3504 102.595 16.1591 103.429 16.1591C103.967 16.1591 104.474 16.2462 104.951 16.4205C105.432 16.5909 105.857 16.8561 106.224 17.2159C106.595 17.5758 106.887 18.0341 107.099 18.5909C107.311 19.1439 107.417 19.803 107.417 20.5682V21.1989H100.264V19.8125H105.446C105.442 19.4186 105.357 19.0682 105.19 18.7614C105.023 18.4508 104.79 18.2064 104.491 18.0284C104.196 17.8504 103.851 17.7614 103.457 17.7614C103.037 17.7614 102.667 17.8636 102.349 18.0682C102.031 18.2689 101.783 18.5341 101.605 18.8636C101.431 19.1894 101.342 19.5473 101.338 19.9375V21.1477C101.338 21.6553 101.431 22.0909 101.616 22.4545C101.802 22.8144 102.061 23.0909 102.395 23.2841C102.728 23.4735 103.118 23.5682 103.565 23.5682C103.864 23.5682 104.135 23.5265 104.378 23.4432C104.62 23.3561 104.83 23.2292 105.008 23.0625C105.186 22.8958 105.321 22.6894 105.412 22.4432L107.332 22.6591C107.211 23.1667 106.98 23.6098 106.639 23.9886C106.302 24.3636 105.87 24.6553 105.343 24.8636C104.817 25.0682 104.215 25.1705 103.537 25.1705ZM109.157 25V16.2727H111.123V17.7557H111.226C111.407 17.2557 111.709 16.8655 112.129 16.5852C112.549 16.3011 113.051 16.1591 113.635 16.1591C114.226 16.1591 114.724 16.303 115.129 16.5909C115.538 16.875 115.826 17.2633 115.993 17.7557H116.084C116.277 17.2708 116.602 16.8845 117.061 16.5966C117.523 16.3049 118.07 16.1591 118.703 16.1591C119.506 16.1591 120.161 16.4129 120.669 16.9205C121.176 17.428 121.43 18.1686 121.43 19.142V25H119.368V19.4602C119.368 18.9186 119.224 18.5227 118.936 18.2727C118.648 18.0189 118.296 17.892 117.879 17.892C117.383 17.892 116.995 18.0473 116.714 18.358C116.438 18.6648 116.299 19.0644 116.299 19.5568V25H114.282V19.375C114.282 18.9242 114.146 18.5644 113.873 18.2955C113.604 18.0265 113.252 17.892 112.816 17.892C112.521 17.892 112.252 17.9678 112.01 18.1193C111.767 18.267 111.574 18.4773 111.43 18.75C111.286 19.0189 111.214 19.3333 111.214 19.6932V25H109.157ZM124.483 28.2727C124.202 28.2727 123.943 28.25 123.704 28.2045C123.469 28.1629 123.282 28.1136 123.142 28.0568L123.619 26.4545C123.918 26.5417 124.185 26.5833 124.42 26.5795C124.655 26.5758 124.861 26.5019 125.04 26.358C125.221 26.2178 125.375 25.983 125.5 25.6534L125.676 25.1818L122.511 16.2727H124.693L126.704 22.8636H126.795L128.812 16.2727H131L127.505 26.0568C127.343 26.5189 127.127 26.9148 126.858 27.2443C126.589 27.5777 126.259 27.8314 125.869 28.0057C125.483 28.1837 125.021 28.2727 124.483 28.2727Z" fill="white"/>
<path d="M133.69 25.125C133.345 25.125 133.05 25.0038 132.804 24.7614C132.557 24.5189 132.436 24.2235 132.44 23.875C132.436 23.5341 132.557 23.2424 132.804 23C133.05 22.7576 133.345 22.6364 133.69 22.6364C134.023 22.6364 134.313 22.7576 134.559 23C134.809 23.2424 134.936 23.5341 134.94 23.875C134.936 24.1061 134.876 24.3163 134.758 24.5057C134.645 24.6951 134.493 24.8466 134.304 24.9602C134.118 25.0701 133.914 25.125 133.69 25.125Z" fill="#FAFF00"/>
</svg>
