<svg width="32" height="32" viewBox="0 0 32 32" fill="none" xmlns="http://www.w3.org/2000/svg">
<path d="M14.4778 0.0401382C9.47095 0.559937 5.08374 3.28419 2.41761 7.53025C-1.36252 13.5486 -0.649052 21.5398 4.13244 26.744C6.79231 29.6374 10.0843 31.3596 14.0397 31.9232C14.7844 32.0297 17.244 32.0234 18.0138 31.917C21.9066 31.3784 25.1986 29.6624 27.8522 26.7816C30.0364 24.4143 31.432 21.3832 31.9202 17.9763C32.0266 17.2373 32.0266 14.7699 31.9202 14.0309C31.551 11.4256 30.7248 9.2149 29.3542 7.14823C28.7784 6.27146 28.1964 5.55752 27.3828 4.73711C24.8856 2.20701 21.7939 0.647614 18.2329 0.121552C17.4631 0.0088253 15.2413 -0.041275 14.4778 0.0401382ZM23.1458 9.8349C23.515 10.1856 23.5213 10.4299 23.2021 12.7783C22.9205 14.8701 21.9504 20.7695 21.6062 22.4541C21.481 23.0741 21.2369 23.6064 20.9741 23.8319C20.7863 24.001 20.7175 24.0198 20.342 24.0198C20.0353 24.0198 19.8413 23.9822 19.6097 23.8695C19.2092 23.6878 14.3088 20.3812 13.9833 20.0806C13.6892 19.805 13.5515 19.5107 13.6078 19.2727C13.6892 18.9345 14.0647 18.5337 15.8233 16.8804C17.9012 14.9264 18.9588 13.8931 19.109 13.6676C19.2467 13.4547 19.1466 13.248 18.9088 13.248C18.7022 13.248 18.8712 13.1416 14.8533 15.8157C11.1044 18.3082 11.0168 18.3583 10.222 18.3396C9.61489 18.327 7.19911 17.6695 6.52945 17.3375C5.84102 16.9931 5.92238 16.4796 6.72347 16.0787C7.41816 15.728 15.6606 12.1834 18.2516 11.125C22.0192 9.57813 22.6889 9.39652 23.1458 9.8349Z" fill="white"/>
</svg>
