<svg width="73" height="73" viewBox="0 0 73 73" fill="none" xmlns="http://www.w3.org/2000/svg">
<g clip-path="url(#clip0_70_75)">
<path d="M29.1877 0.0531082C19.6207 0.281235 12.6486 0.794514 9.98242 1.46463C6.18984 2.43416 3.42383 5.20018 2.4543 9.00702C0.515234 16.6349 0.515234 36.0541 2.4543 43.682C3.42383 47.4889 6.18984 50.2549 9.98242 51.2244C14.274 52.308 30.3141 52.9353 45.185 52.5931C56.135 52.3508 62.109 51.9373 64.932 51.2244C68.7246 50.2549 71.4906 47.4889 72.4602 43.682C74.3992 36.0541 74.3992 16.6349 72.4602 9.00702C71.5334 5.34276 68.8244 2.53397 65.26 1.55018C64.0908 1.22225 61.9379 0.908577 59.343 0.68045C56.6482 0.452328 49.0773 0.124397 45.9406 0.0958824L43.1033 0.0816231L42.7041 0.523617C42.1623 1.1367 42.1623 1.83533 42.7041 2.39139C43.2031 2.87616 43.5311 2.91893 48.5356 3.03299C55.1084 3.17557 61.225 3.6033 63.6203 4.08807C66.4291 4.65838 68.468 6.32655 69.409 8.82166C71.3481 13.926 71.6475 33.8299 69.908 42.1137C69.466 44.2096 68.8387 45.4072 67.5697 46.6334C66.0441 48.0734 64.4473 48.6295 60.6975 49.0144C54.2387 49.6703 40.708 49.9982 29.7295 49.7416C19.9914 49.5277 14.602 49.1998 11.4795 48.6437C8.61367 48.1305 6.475 46.4053 5.50547 43.8674C3.56641 38.7631 3.26699 18.8592 5.00645 10.5754C5.44844 8.49373 6.07578 7.28182 7.33047 6.08416C8.97012 4.5158 10.5527 4.01678 15.0439 3.6033C18.0951 3.33241 25.5947 2.9617 28.1897 2.9617C31.3264 2.9617 32.41 2.83338 32.8092 2.43416C33.2369 2.00643 33.351 1.45037 33.1086 0.865803C32.7664 0.0673676 32.3529 -0.0181808 29.1877 0.0531082Z" fill="white"/>
<path d="M37.1005 0.138664C36.2736 0.594914 36.0597 1.63573 36.6586 2.29159C37.2716 2.96171 38.1699 2.97597 38.8257 2.32011C39.1964 1.94941 39.282 1.17948 39.0254 0.666203C38.7117 0.095891 37.6994 -0.189265 37.1005 0.138664Z" fill="white"/>
<path d="M29.658 15.2804L29.2588 15.6226V26.5583V37.494L29.658 37.8362C30.4992 38.5634 30.3424 38.6347 40.109 32.9743C45.0422 30.1085 49.2197 27.6134 49.4051 27.4138C49.5904 27.1856 49.7188 26.8577 49.7188 26.5583C49.7188 26.2589 49.5904 25.931 49.4051 25.7171C49.2197 25.5175 45.0422 23.0081 40.109 20.1423C30.3424 14.4819 30.4992 14.5532 29.658 15.2804ZM39.3105 22.9939C42.6469 24.9329 45.3844 26.5298 45.3986 26.544C45.4271 26.5583 42.6326 28.2122 39.1965 30.194C35.7746 32.1901 32.752 33.9439 32.5096 34.0864L32.0391 34.3573V26.5583V18.7593L32.6521 19.1157C32.9801 19.3153 35.9742 21.0548 39.3105 22.9939Z" fill="white"/>
</g>
<defs>
<clipPath id="clip0_70_75">
<rect width="73" height="73" fill="white"/>
</clipPath>
</defs>
</svg>
